<?xml version="1.0" encoding="UTF-8"?>
<svg width="841px" height="1682px" viewBox="0 0 841 1682" version="1.1" xmlns="http://www.w3.org/2000/svg" xmlns:xlink="http://www.w3.org/1999/xlink">
    <!-- Generator: Sketch 48.2 (47327) - http://www.bohemiancoding.com/sketch -->
    <title>phone</title>
    <desc>Created with Sketch.</desc>
    <defs>
        <path d="M7.43794242,222.064228 L18,222.064228 C21.8659932,222.064228 25,225.198235 25,229.064228 L25,283.278894 C25,287.144888 21.8659932,290.278894 18,290.278894 L7.43794242,290.278894 C3.57194918,290.278894 0.437942425,287.144888 0.437942425,283.278894 L0.437942425,229.064228 C0.437942425,225.198235 3.57194918,222.064228 7.43794242,222.064228 Z M7.43794242,349.465149 L18,349.465149 C21.8659932,349.465149 25,352.599155 25,356.465149 L25,464.850285 C25,468.716278 21.8659932,471.850285 18,471.850285 L7.43794242,471.850285 C3.57194918,471.850285 0.437942425,468.716278 0.437942425,464.850285 L0.437942425,356.465149 C0.437942425,352.599155 3.57194918,349.465149 7.43794242,349.465149 Z M7.43794242,504.954461 L18,504.954461 C21.8659932,504.954461 25,508.088468 25,511.954461 L25,620.339597 C25,624.205591 21.8659932,627.339597 18,627.339597 L7.43794242,627.339597 C3.57194918,627.339597 0.437942425,624.205591 0.437942425,620.339597 L0.437942425,511.954461 C0.437942425,508.088468 3.57194918,504.954461 7.43794242,504.954461 Z" id="path-1"></path>
        <filter x="-879.4%" y="-35.5%" width="1858.8%" height="206.6%" filterUnits="objectBoundingBox" id="filter-2">
            <feOffset dx="0" dy="72" in="SourceAlpha" result="shadowOffsetOuter1"></feOffset>
            <feGaussianBlur stdDeviation="60" in="shadowOffsetOuter1" result="shadowBlurOuter1"></feGaussianBlur>
            <feColorMatrix values="0 0 0 0 0   0 0 0 0 0   0 0 0 0 0  0 0 0 0.132840806 0" type="matrix" in="shadowBlurOuter1"></feColorMatrix>
        </filter>
        <rect id="path-3" x="0" y="0" width="750" height="1624" rx="85"></rect>
    </defs>
    <g id="📱CHANGE-HERE" stroke="none" stroke-width="1" fill="none" fill-rule="evenodd">
        <g id="phone">
            <g id="Group-3">
                <path d="M0,0 L828,0 L828,1682 L0,1682 L0,0 Z M68,29 C51.9837423,29 39,41.9837423 39,58 L39,1626 C39,1642.01626 51.9837423,1655 68,1655 L769,1655 C785.016258,1655 798,1642.01626 798,1626 L798,58 C798,41.9837423 785.016258,29 769,29 L68,29 Z" id="Combined-Shape" fill="#373C43"></path>
                <rect id="Rectangle-6" fill="#373C43" x="810" y="0" width="31" height="1682"></rect>
                <g id="Group-2" transform="translate(0.500000, 0.000000)">
                    <g id="body">
                        <use fill="black" fill-opacity="1" filter="url(#filter-2)" xlink:href="#path-1"></use>
                        <use fill="#000000" fill-rule="evenodd" xlink:href="#path-1"></use>
                    </g>
                    <g id="📱Change-this-screen" transform="translate(45.000000, 29.000000)">
                        <path d="M85,0 L665,0 C711.944204,-8.62351033e-15 750,38.0557963 750,85 L750,1539 C750,1585.9442 711.944204,1624 665,1624 L85,1624 C38.0557963,1624 5.74900688e-15,1585.9442 0,1539 L0,85 C-5.74900688e-15,38.0557963 38.0557963,8.62351033e-15 85,0 Z" id="masked-area" fill="#FF3B3B" fill-rule="evenodd" opacity="0"></path>
                        <mask id="mask-4" fill="white">
                            <use xlink:href="#path-3"></use>
                        </mask>
                        <use id="mask" fill-opacity="0" fill="#FFFFFF" fill-rule="evenodd" xlink:href="#path-3"></use>
                    </g>
                    <path d="M213.027308,29 L130,29 C83.0557963,29 45,67.0557963 45,114 L45,1568 C45,1614.9442 83.0557963,1653 130,1653 L710,1653 C756.944204,1653 795,1614.9442 795,1568 L795,114 C795,67.0557963 756.944204,29 710,29 L626.972692,29 C626.990818,29.3310304 627,29.6644429 627,30 L627,67 C627,88.5391052 609.539105,106 588,106 L252,106 C230.460895,106 213,88.5391052 213,67 L213,30 C213,29.6644429 213.009182,29.3310304 213.027308,29 Z M140.19426,-5.17920154e-15 L699.80574,5.17920154e-15 C744.381677,-3.00926524e-15 760.545989,4.64128056 776.842285,13.3566352 C793.138581,22.0719898 805.92801,34.8614185 814.643365,51.1577148 C823.358719,67.4540111 828,83.618323 828,128.19426 L828,1553.80574 C828,1598.38168 823.358719,1614.54599 814.643365,1630.84229 C805.92801,1647.13858 793.138581,1659.92801 776.842285,1668.64336 C760.545989,1677.35872 744.381677,1682 699.80574,1682 L140.19426,1682 C95.618323,1682 79.4540111,1677.35872 63.1577148,1668.64336 C46.8614185,1659.92801 34.0719898,1647.13858 25.3566352,1630.84229 C16.6412806,1614.54599 12,1598.38168 12,1553.80574 L12,128.19426 C12,83.618323 16.6412806,67.4540111 25.3566352,51.1577148 C34.0719898,34.8614185 46.8614185,22.0719898 63.1577148,13.3566352 C79.4540111,4.64128056 95.618323,3.00926524e-15 140.19426,-5.17920154e-15 Z" id="screen-frame" fill="#000000"></path>
                    <g id="sensor-camera" opacity="0.6" transform="translate(365.000000, 47.000000)" fill="#9092A5">
                        <g id="Group" transform="translate(150.000000, 0.000000)">
                            <circle id="Oval" cx="12" cy="12" r="12"></circle>
                        </g>
                        <rect id="Rectangle-2" x="0" y="7" width="100" height="10" rx="5"></rect>
                    </g>
                </g>
            </g>
        </g>
    </g>
</svg>